<?xml version="1.0" encoding="utf-8"?>
<!-- Generator: Adobe Illustrator 16.0.0, SVG Export Plug-In . SVG Version: 6.00 Build 0)  -->
<!DOCTYPE svg PUBLIC "-//W3C//DTD SVG 1.1//EN" "http://www.w3.org/Graphics/SVG/1.1/DTD/svg11.dtd">
<svg version="1.1" id="Layer_1" xmlns="http://www.w3.org/2000/svg" xmlns:xlink="http://www.w3.org/1999/xlink" x="0px" y="0px"
	 width="425.2px" height="425.2px" viewBox="0 0 425.2 425.2" enable-background="new 0 0 425.2 425.2" xml:space="preserve">
<rect x="363.698" y="368.333" fill="#FFFFFF" stroke="#000000" stroke-width="0.1" stroke-miterlimit="10" width="28.346" height="28.346"/>
<text transform="matrix(1 0 0 1 350.4883 336.9727)"><tspan x="0" y="0" font-family="'Helvetica'" font-size="10">10mm square </tspan><tspan x="0" y="12" font-family="'Helvetica'" font-size="10">for scale only</tspan><tspan x="0" y="24" font-family="'Helvetica'" font-size="10">do not cut</tspan></text>
<text transform="matrix(1 0 0 1 49.1885 352.125)"><tspan x="0" y="0" font-family="'Helvetica'" font-size="10">Hairlines (0.1pt) are cut lines</tspan><tspan x="0" y="12" font-family="'Helvetica'" font-size="10">Engrave light grey square to depth of 0.6mm (3/128”) (approx)</tspan><tspan x="0" y="24" font-family="'Helvetica'" font-size="10">Engrave dark grey lines to depth of 0.8mm (1/32”) (approx)</tspan><tspan x="0" y="36" font-family="'Helvetica'" font-size="10">Use 3mm (1/8”) acrylic</tspan></text>
<g>
	<rect x="162.993" y="274.816" fill="none" stroke="#1F1A17" stroke-width="0.1" width="35.433" height="8.504"/>
	<rect x="226.772" y="274.816" fill="none" stroke="#1F1A17" stroke-width="0.1" width="35.433" height="8.504"/>
	<circle fill="none" stroke="#1F1A17" stroke-width="0.1" cx="212.599" cy="279.071" r="4.394"/>
</g>
<path fill="none" stroke="#1F1A17" stroke-width="0.1" d="M287.009,285.149c0,7.683-4.339,13.906-9.692,13.906H147.882
	c-5.353,0-9.692-6.224-9.692-13.906v-251.4c0-7.681,4.339-13.906,9.692-13.906h129.435c5.354,0,9.692,6.226,9.692,13.906V285.149z"
	/>
<rect x="195.59" y="110.552" fill="#CCCCCC" stroke="#1F1A17" stroke-width="0.1" width="34.016" height="34.016"/>
<line fill="none" stroke="#666666" stroke-width="2.75" x1="154.488" y1="110.551" x2="225.354" y2="110.551"/>
<line fill="none" stroke="#666666" stroke-width="2.75" x1="199.842" y1="144.567" x2="270.708" y2="144.567"/>
<line fill="none" stroke="#666666" stroke-width="2.75" x1="195.59" y1="185.669" x2="195.59" y2="114.803"/>
<line fill="none" stroke="#666666" stroke-width="2.75" x1="229.606" y1="140.315" x2="229.606" y2="69.449"/>
<g>
	<rect x="162.993" y="35.572" fill="none" stroke="#1F1A17" stroke-width="0.1" width="35.433" height="8.504"/>
	<rect x="226.772" y="35.572" fill="none" stroke="#1F1A17" stroke-width="0.1" width="35.433" height="8.504"/>
	<circle fill="none" stroke="#1F1A17" stroke-width="0.1" cx="212.599" cy="39.827" r="4.394"/>
</g>
<g>
	<line fill="none" stroke="#666666" stroke-width="2.75" x1="269.292" y1="90.708" x2="269.292" y2="79.371"/>
	<circle fill="none" stroke="#000000" stroke-width="0.1" cx="269.292" cy="79.371" r="1.417"/>
	<circle fill="none" stroke="#000000" stroke-width="0.1" cx="269.292" cy="90.709" r="1.417"/>
</g>
<g>
	<line fill="none" stroke="#666666" stroke-width="2.75" x1="155.906" y1="175.748" x2="155.906" y2="164.41"/>
	<circle fill="none" stroke="#000000" stroke-width="0.1" cx="155.906" cy="164.41" r="1.417"/>
	<circle fill="none" stroke="#000000" stroke-width="0.1" cx="155.906" cy="175.748" r="1.417"/>
</g>
<g>
	<line fill="none" stroke="#666666" stroke-width="2.75" x1="175.748" y1="70.866" x2="164.41" y2="70.866"/>
	<circle fill="none" stroke="#000000" stroke-width="0.1" cx="164.41" cy="70.866" r="1.417"/>
	<circle fill="none" stroke="#000000" stroke-width="0.1" cx="175.749" cy="70.866" r="1.417"/>
</g>
<g>
	<line fill="none" stroke="#666666" stroke-width="2.75" x1="260.787" y1="184.251" x2="249.449" y2="184.251"/>
	<circle fill="none" stroke="#000000" stroke-width="0.1" cx="249.449" cy="184.252" r="1.417"/>
	<circle fill="none" stroke="#000000" stroke-width="0.1" cx="260.788" cy="184.252" r="1.417"/>
</g>
<g>
	<path fill="none" stroke="#000000" stroke-width="0.1" d="M97.086,164.882c0,2.087-2.538,3.78-5.669,3.78h-5.669
		c-3.131,0-5.669-1.693-5.669-3.78V59.056c0-2.088,2.538-3.78,5.669-3.78h5.669c3.131,0,5.669,1.692,5.669,3.78V164.882z"/>
	<g>
		<circle fill="none" stroke="#1F1A17" stroke-width="0.1" cx="49.039" cy="45.638" r="4.535"/>
		<circle fill="none" stroke="#1F1A17" stroke-width="0.1" cx="128.126" cy="45.638" r="4.536"/>
	</g>
	<polyline fill="none" stroke="#1F1A17" stroke-width="0.1" points="138.189,32.598 38.977,32.598 38.977,221.103 38.976,221.103 
		38.976,286.3 74.409,286.3 74.409,221.103 74.41,221.103 74.41,212.599 84.048,212.599 84.048,204.095 79.513,204.095 
		79.513,195.591 84.048,195.591 84.048,189.922 93.119,189.922 93.119,195.591 97.654,195.591 97.654,204.095 93.119,204.095 
		93.119,212.599 102.757,212.599 102.757,221.103 102.756,221.103 102.756,286.3 138.189,286.3 	"/>
</g>
<g>
	<polyline fill="none" stroke="#1F1A17" stroke-width="0.1" points="287.008,241.653 322.44,241.653 322.44,176.457 
		322.441,176.457 322.441,167.953 332.08,167.953 332.08,159.449 327.545,159.449 327.545,150.945 332.08,150.945 332.08,145.276 
		341.15,145.276 341.15,150.945 345.686,150.945 345.686,159.449 341.15,159.449 341.15,167.953 350.789,167.953 350.789,176.457 
		350.787,176.457 350.787,241.653 386.221,241.653 386.221,176.457 386.221,77.244 287.008,77.244 	"/>
	<g>
		<circle fill="none" stroke="#000000" stroke-width="0.1" cx="329.527" cy="125.716" r="1.134"/>
		<circle fill="none" stroke="#000000" stroke-width="0.1" cx="343.7" cy="125.716" r="1.134"/>
		<circle fill="none" stroke="#000000" stroke-width="0.1" cx="315.354" cy="125.716" r="1.134"/>
		<circle fill="none" stroke="#000000" stroke-width="0.1" cx="357.874" cy="125.716" r="1.134"/>
	</g>
	<g>
		<circle fill="none" stroke="#000000" stroke-width="0.1" cx="329.527" cy="115.795" r="1.134"/>
		<circle fill="none" stroke="#000000" stroke-width="0.1" cx="343.7" cy="115.795" r="1.134"/>
		<circle fill="none" stroke="#000000" stroke-width="0.1" cx="315.354" cy="115.795" r="1.134"/>
		<circle fill="none" stroke="#000000" stroke-width="0.1" cx="357.874" cy="115.795" r="1.134"/>
		<rect x="34.334" y="15.667" fill="none" stroke="#000000" stroke-width="0.1" width="361" height="289"/>
	</g>
	<g>
		<circle fill="none" stroke="#000000" stroke-width="0.1" cx="329.527" cy="135.638" r="1.134"/>
		<circle fill="none" stroke="#000000" stroke-width="0.1" cx="343.7" cy="135.638" r="1.134"/>
		<circle fill="none" stroke="#000000" stroke-width="0.1" cx="315.354" cy="135.638" r="1.134"/>
		<circle fill="none" stroke="#000000" stroke-width="0.1" cx="357.874" cy="135.638" r="1.134"/>
	</g>
</g>
</svg>
