<?xml version="1.0" encoding="utf-8"?>
<!-- Generated by IcoMoon.io -->
<!DOCTYPE svg PUBLIC "-//W3C//DTD SVG 1.1//EN" "http://www.w3.org/Graphics/SVG/1.1/DTD/svg11.dtd">
<svg version="1.1" xmlns="http://www.w3.org/2000/svg" xmlns:xlink="http://www.w3.org/1999/xlink" width="1024" height="1024" viewBox="0 0 1024 1024">
<g id="icomoon-ignore">
</g>
<path d="M512 20.48c-271.462 0-491.52 220.058-491.52 491.52s220.058 491.52 491.52 491.52 491.52-220.058 491.52-491.52-220.058-491.52-491.52-491.52zM711.936 423.117c0.205 4.198 0.256 8.397 0.256 12.493 0 128-97.331 275.507-275.405 275.507-54.682 0-105.574-15.974-148.378-43.52 7.526 0.922 15.258 1.28 23.091 1.28 45.363 0 87.091-15.411 120.218-41.421-42.342-0.819-78.080-28.774-90.419-67.174 5.888 1.075 11.93 1.69 18.176 1.69 8.806 0 17.408-1.178 25.498-3.379-44.288-8.909-77.67-48.026-77.67-94.925v-1.178c13.056 7.219 28.006 11.622 43.878 12.134-26.010-17.408-43.059-47.002-43.059-80.64 0-17.715 4.762-34.406 13.107-48.691 47.77 58.573 119.040 97.075 199.526 101.222-1.69-7.117-2.509-14.49-2.509-22.118 0-53.402 43.315-96.819 96.819-96.819 27.802 0 52.992 11.776 70.656 30.618 22.067-4.403 42.752-12.39 61.44-23.501-7.219 22.579-22.528 41.574-42.547 53.606 19.61-2.406 38.246-7.578 55.603-15.309-12.954 19.405-29.389 36.506-48.282 50.125z"></path>
</svg>
